# xmcd
#
# Track frame offsets:
#	150
#	18579
#	42150
#	60502
#
# Disc length: 1119 seconds
#
# Revision: 0
# Processed by: cddbd v1.5.2PL0 Copyright (c) Steve Scherf et al.
# Submitted via: audiograbber 1.83.01
#
DISCID=2a045d04
DTITLE=Teriyaki Boyz - Zock On
DYEAR=1900
DGENRE=J-POP
TTITLE0=Zock On
TTITLE1=I Still Lover Her (Low Jack Three Remix)
TTITLE2=Zock On (Instrumental)
TTITLE3=I Still Lover Her (Low Jack Three Remix Inst)
EXTD=
EXTT0=
EXTT1=
EXTT2=
EXTT3=
PLAYORDER=
